<?xml version="1.0" encoding="utf-8"?>
<!-- Generator: Adobe Illustrator 16.0.0, SVG Export Plug-In . SVG Version: 6.00 Build 0)  -->
<!DOCTYPE svg PUBLIC "-//W3C//DTD SVG 1.1//EN" "http://www.w3.org/Graphics/SVG/1.1/DTD/svg11.dtd">
<svg version="1.1" id="Ebene_1" xmlns="http://www.w3.org/2000/svg" xmlns:xlink="http://www.w3.org/1999/xlink" x="0px" y="0px"
	 width="312.31px" height="106px" viewBox="0 0 312.31 106" enable-background="new 0 0 312.31 106" xml:space="preserve">
<path d="M117.433,34.161c3.344-5.786,7.983-10.375,13.916-13.77c2.682-1.534,5.503-2.703,8.45-3.543l0.004-0.009h-19.629
	l-17.871,42.407L84.211,16.839h-13.55L52.351,59.246L34.7,16.839H14.998l30.615,72.729h13.55L77.4,47.234L95.71,89.568h13.55
	l7.66-18.239c-2.991-5.507-4.504-11.533-4.504-18.089C112.416,46.308,114.087,39.947,117.433,34.161z"/>
<path fill="none" d="M187.629,66.008c1.062-2.134,2.317-3.953,3.792-5.412c1.685-1.67,3.535-3.353,5.549-5.047
	s3.863-3.185,5.549-4.473c1.685-1.288,3.013-2.78,3.983-4.474c0.969-1.694,1.454-3.447,1.454-5.26c0-2.72-0.902-4.915-2.706-6.585
	c-1.804-1.669-4.156-2.506-7.061-2.506c-2.972,0-5.391,0.907-7.254,2.721c-1.805,1.755-2.838,3.758-3.116,6.004
	c1.292,3.867,1.941,7.955,1.941,12.264C189.759,57.745,189.041,61.998,187.629,66.008z"/>
<path fill="none" d="M151.087,33.318c-5.616,0-10.217,1.917-13.806,5.75c-3.589,3.834-5.383,8.558-5.383,14.172
	c0,5.616,1.794,10.327,5.383,14.136s8.19,5.713,13.806,5.713c5.614,0,10.217-1.904,13.806-5.713s5.383-8.52,5.383-14.136
	c0-5.614-1.794-10.338-5.383-14.172C161.305,35.235,156.702,33.318,151.087,33.318z"/>
<path d="M187.629,66.008c1.412-4.01,2.13-8.263,2.13-12.768c0-4.31-0.648-8.397-1.941-12.264c-0.009,0.074-0.025,0.146-0.033,0.222
	l-18.259-4.867c1.057-4.711,3.239-8.824,6.52-12.351c-1.616-1.311-3.346-2.517-5.221-3.589c-5.933-3.393-12.513-5.09-19.739-5.09
	c-3.96,0-7.718,0.528-11.289,1.547L116.92,71.329c0.172,0.317,0.33,0.64,0.513,0.954c3.344,5.762,7.983,10.327,13.916,13.696
	s12.512,5.054,19.739,5.054c7.226,0,13.806-1.685,19.739-5.054s10.571-7.934,13.916-13.696c0.594-1.023,1.116-2.071,1.604-3.131
	c0.233-0.756,0.5-1.5,0.825-2.223C187.315,66.608,187.476,66.315,187.629,66.008z M164.894,67.376
	c-3.589,3.809-8.192,5.713-13.806,5.713c-5.616,0-10.217-1.904-13.806-5.713s-5.383-8.52-5.383-14.136
	c0-5.614,1.794-10.338,5.383-14.172c3.589-3.833,8.19-5.75,13.806-5.75c5.614,0,10.217,1.917,13.806,5.75
	c3.589,3.834,5.383,8.558,5.383,14.172C170.277,58.856,168.482,63.567,164.894,67.376z"/>
<path d="M218.492,22.372c-5.525-5.021-12.293-7.53-20.304-7.53c-7.549,0-13.871,2.057-18.966,6.17
	c-1.159,0.936-2.209,1.93-3.175,2.969c3.499,2.838,6.407,6.222,8.695,10.18c1.265,2.189,2.289,4.461,3.076,6.815
	c0.278-2.247,1.312-4.25,3.116-6.004c1.863-1.814,4.282-2.721,7.254-2.721c2.904,0,5.257,0.836,7.061,2.506
	c1.804,1.67,2.706,3.865,2.706,6.585c0,1.813-0.485,3.566-1.454,5.26c-0.97,1.694-2.298,3.186-3.983,4.474
	c-1.686,1.288-3.535,2.779-5.549,4.473s-3.864,3.377-5.549,5.047c-1.474,1.459-2.73,3.278-3.792,5.412
	c-0.375,1.066-0.808,2.113-1.283,3.145c-0.589,1.913-0.896,3.924-0.896,6.044c0,5.393,2.217,10.714,6.652,15.962l14.25-10.235
	c-1.386-1.669-2.078-3.436-2.078-5.296c0-1.335,0.484-2.708,1.454-4.116c0.969-1.407,2.297-2.719,3.982-3.937
	c1.686-1.216,3.535-2.708,5.549-4.474c2.014-1.765,3.864-3.59,5.55-5.475c1.686-1.884,3.102-4.271,4.25-7.158
	c1.147-2.886,1.721-6.024,1.721-9.413C226.78,33.62,224.017,27.393,218.492,22.372z"/>
<path d="M187.171,66.929c-0.325,0.724-0.592,1.467-0.825,2.223c0.475-1.031,0.907-2.078,1.283-3.145
	C187.476,66.315,187.315,66.608,187.171,66.929z"/>
<path d="M234.104,79.388c-2.899-3.595-4.931-7.884-6.108-12.856c-1.057-0.258-2.179-0.4-3.381-0.4c-3.662,0-6.751,1.198-9.265,3.593
	c-2.516,2.396-3.772,5.372-3.772,8.929c0,3.558,1.256,6.511,3.772,8.859c2.514,2.347,5.603,3.521,9.265,3.521
	c3.504,0,6.456-1.187,8.854-3.557c1.558-1.542,2.602-3.328,3.147-5.351C235.73,81.267,234.89,80.357,234.104,79.388z"/>
<path d="M277.756,16.839V64.08c-1.807,2.296-4.164,4.371-7.068,6.226c-2.906,1.856-6.189,2.783-9.851,2.783
	c-4.541,0-8.179-1.513-10.913-4.541c-2.442-2.734-3.662-6.885-3.662-12.451V16.839H226.78v24.216v14.309
	c0,4.046,0.41,7.765,1.216,11.167c2.164,0.528,4.033,1.584,5.591,3.193c2.318,2.396,3.479,5.372,3.479,8.929
	c0,1.229-0.156,2.384-0.45,3.473c2.417,2.342,5.202,4.276,8.364,5.794c4.321,2.075,8.947,3.113,13.879,3.113
	c7.714,0,14.282-2.441,19.702-7.324v5.859h18.75V16.839H277.756z"/>
</svg>
